<svg xmlns="http://www.w3.org/2000/svg" width="300" height="300" viewBox="0 0 300 300" xmlns:xlink="http://www.w3.org/1999/xlink" role="img" artist="Katerina Limpitsouni" source="https://undraw.co/"><title>empty</title><path d="M280.18187,266.08691a9.9775,9.9775,0,0,1-8.91015,9.77392c-37.50085.26245-67.88977-.06152-105.39062.20139a15.05668,15.05668,0,0,1-12.0636-4.765,14.95533,14.95533,0,0,1-4.76241-12.05727c.2433-37.50125.532-67.89062.26355-105.39227a9.9781,9.9781,0,0,1,9.77443-8.90966c37.50125-.2433,67.89062-.53165,105.39227-.264a9.9783,9.9783,0,0,1,8.90966,9.77443c.2571,37.5026-.0202,67.89172.201,105.39358A9.978,9.978,0,0,1,280.18187,266.08691Z" transform="translate(-139.81813 -133.91309)" fill="#3f3d56"/><path d="M274.18187,258.08691c-33.398.23342-60.42042-.0548-93.81911.1792a13.356,13.356,0,0,1-10.72445-4.234,13.28465,13.28465,0,0,1-4.22894-10.71867c.21638-33.32531.47307-60.34729.23427-93.6728a8.8681,8.8681,0,0,1,8.68628-7.92059c33.32606-.21638,60.34844-.47292,93.6745-.23427a8.86849,8.86849,0,0,1,7.91994,8.68628c.22857,33.32656-.01793,60.34873.17858,93.67524A8.86843,8.86843,0,0,1,274.18187,258.08691Z" fill="#f2f2f2"/><path d="M266.18187,250.08691c-29.23242.20412-52.81843-.048-82.05084.15672a11.68867,11.68867,0,0,1-9.36977-3.7025,11.6151,11.6151,0,0,1-3.69749-9.36483c.18926-29.14872.41343-52.73448.20479-81.88364a7.75427,7.75427,0,0,1,7.596-6.92356c29.14817-.18927,52.73393-.41359,81.8825-.20479a7.75455,7.75455,0,0,1,7.22436,7.59643c.19981,29.14906-.01569,52.73491.15622,81.88344A7.75435,7.75435,0,0,1,266.18187,250.08691Z" fill="#fff"/><path d="M229.68187,231.58691a1.5,1.5,0,0,1-1.5,1.5h-83a1.5,1.5,0,0,1,0-3h83A1.5,1.5,0,0,1,229.68187,231.58691Z" fill="#3f3d56"/><circle cx="210.63626" cy="188.17383" r="12" fill="#514f62"/><path d="M219.18187,207.58691a1.5,1.5,0,0,1-1.5,1.5h-41a1.5,1.5,0,0,1,0-3h41A1.5,1.5,0,0,1,219.18187,207.58691Z" fill="#514f62"/></svg>